<?xml version="1.0" encoding="UTF-8"?>
<svg id="Lager_2" data-name="Lager 2" xmlns="http://www.w3.org/2000/svg" viewBox="0 0 227 160">
  <defs>
    <style>
      .cls-1 {
        fill: #6faa7f;
      }

      .cls-1, .cls-2 {
        stroke-width: 0px;
      }

      .cls-2 {
        fill: none;
        opacity: 0;
      }
    </style>
  </defs>
  <g id="Lager_2-2" data-name="Lager 2">
    <g>
      <g>
        <path class="cls-1" d="M177.93,30.81l-6.63,29.08c-.25,1.09-1.32,1.75-2.41,1.53-1.54-.31-3.13-.47-4.76-.47h-.02c-1.05,0-1.84-.95-1.61-1.97l6.89-30.14c.02-.1,0-.17-.05-.22-.03-.04-.08-.06-.14-.06h-86.92s-.03.02-.02.03l9.49,43.66s.02.02.03.02h49.03c1.19,0,1.97,1.24,1.45,2.31-.73,1.48-1.32,3.05-1.73,4.68-.23.9-1.03,1.52-1.96,1.52h-44.12c-3.4,0-6.08,3.08-5.39,6.61.5,2.61,2.95,4.39,5.61,4.39h44.5c.85,0,1.63.53,1.9,1.34.75,2.23,1.82,4.3,3.14,6.18,0,.01.02.03.02.04,1.49,1.09,2.46,2.85,2.46,4.83,0,3.32-2.69,6-6,6s-6-2.68-6-6c0-1.44.51-2.76,1.35-3.8h-36.71c.85,1.04,1.36,2.36,1.36,3.8,0,3.32-2.69,6-6,6s-6-2.68-6-6c0-1.61.64-3.08,1.68-4.16-1.53-.33-3-.91-4.33-1.76-6.37-4.11-8-12.22-4.52-18.28l1.48-2.6c.26-.46.47-.82.65-1.11t0-.02l-12.09-55.52c-.47-2.1-.99-4.48-2.05-5.53-1.49-1.49-4.5-1.5-7.69-1.5h-10.2c-2.73,0-4.86-2.47-4.3-5.28.41-2.08,2.36-3.49,4.47-3.49h9.96c4.46,0,9.91.02,13.96,4.07,2.86,2.86,3.72,6.72,4.41,9.83l.21.98h88.64c1.91,0,3.82.51,5.37,1.62,3.06,2.18,4.42,5.85,3.58,9.39Z"/>
        <path class="cls-1" d="M179.77,86.28c0,2.21-1.8,4-4,4h-8v8c0,2.21-1.8,4-4,4s-4-1.79-4-4v-8h-8c-2.21,0-4-1.79-4-4s1.79-4,4-4h8v-8c0-2.21,1.79-4,4-4s4,1.79,4,4v8h8c2.2,0,4,1.79,4,4Z"/>
      </g>
      <g>
        <path class="cls-1" d="M53.54,121.8l-8.87,31.74c-.12.43-.51.73-.96.73h-6.45c-.45,0-.85-.31-.97-.75l-6.04-22.92c-.03-.1-.17-.1-.19,0l-6.32,22.94c-.12.43-.51.73-.96.73l-6.4.04c-.45,0-.85-.3-.97-.74l-8.55-31.79c-.17-.64.31-1.26.97-1.26h5.15c.47,0,.87.32.98.78l5.68,25.02c.02.1.17.1.19,0l6.57-25.06c.12-.44.51-.75.97-.75h5.99c.46,0,.86.31.97.76l6.19,24.89c.03.1.17.1.19,0l5.72-24.87c.1-.45.51-.78.97-.78h5.19c.66,0,1.14.63.96,1.27Z"/>
        <path class="cls-1" d="M82.11,142.91h-18.59c-.06,0-.11.05-.1.11.18,1.88.85,3.36,2.02,4.43,1.19,1.1,2.66,1.64,4.4,1.64,2.3,0,4-.91,5.08-2.72.19-.31.51-.52.87-.52h5.27c.72,0,1.21.74.93,1.4-.84,1.96-2.16,3.61-3.94,4.96-2.19,1.66-4.88,2.49-8.07,2.49-2.58,0-4.89-.57-6.94-1.72-2.05-1.14-3.64-2.76-4.79-4.86-1.14-2.09-1.72-4.51-1.72-7.25s.56-5.2,1.69-7.3c1.13-2.09,2.71-3.71,4.74-4.83,2.03-1.13,4.37-1.69,7.01-1.69,2.97,0,5.58.75,7.83,2.24,1.03.68,1.94,1.53,2.69,2.51,1.79,2.35,2.68,5.18,2.68,8.49,0,.6-.03,1.16-.07,1.69s-.48.92-1,.92ZM76.07,138.37c.06,0,.11-.05.1-.11-.06-1.69-.68-3.05-1.88-4.07-1.23-1.05-2.72-1.57-4.5-1.57-1.68,0-3.09.51-4.23,1.52-1.12.99-1.81,2.36-2.08,4.11,0,.06.04.12.1.12h12.49Z"/>
        <path class="cls-1" d="M98.49,128.26c1.53-.81,3.28-1.21,5.25-1.21,2.29,0,4.36.56,6.21,1.69,1.85,1.13,3.32,2.73,4.4,4.81,1.08,2.08,1.62,4.49,1.62,7.23s-.54,5.17-1.62,7.28c-1.08,2.11-2.55,3.75-4.4,4.91-1.85,1.16-3.92,1.74-6.21,1.74-2,0-3.75-.4-5.25-1.18-1.41-.74-2.55-1.69-3.43-2.84-.06-.08-.17-.04-.17.06v2.53c0,.55-.45,1-1,1h-4.77c-.55,0-1-.45-1-1v-33.77c0-.55.45-1,1-1h4.77c.55,0,1,.45,1,1v11.6c0,.1.12.13.17.05.85-1.18,2-2.14,3.43-2.89ZM108.06,136.6c-.66-1.18-1.53-2.07-2.61-2.68-1.08-.61-2.25-.92-3.5-.92s-2.38.31-3.46.94c-1.08.63-1.95,1.54-2.61,2.73-.66,1.19-.99,2.59-.99,4.21s.33,3.01.99,4.21c.66,1.19,1.53,2.1,2.61,2.73,1.08.63,2.23.94,3.46.94s2.42-.32,3.5-.97c1.08-.64,1.95-1.56,2.61-2.76.66-1.19.99-2.61.99-4.25s-.33-3-.99-4.18Z"/>
        <path class="cls-1" d="M131.26,128.26c1.53-.81,3.28-1.21,5.25-1.21,2.29,0,4.36.56,6.21,1.69,1.85,1.13,3.32,2.73,4.4,4.81,1.08,2.08,1.62,4.49,1.62,7.23s-.54,5.17-1.62,7.28c-1.08,2.11-2.55,3.75-4.4,4.91-1.85,1.16-3.92,1.74-6.21,1.74-2,0-3.75-.4-5.25-1.18-1.41-.74-2.55-1.69-3.43-2.84-.06-.08-.17-.04-.17.06v2.53c0,.55-.45,1-1,1h-4.77c-.55,0-1-.45-1-1v-33.77c0-.55.45-1,1-1h4.77c.55,0,1,.45,1,1v11.6c0,.1.12.13.17.05.85-1.18,2-2.14,3.43-2.89ZM140.84,136.6c-.66-1.18-1.53-2.07-2.61-2.68-1.08-.61-2.25-.92-3.5-.92s-2.38.31-3.46.94c-1.08.63-1.95,1.54-2.61,2.73-.66,1.19-.99,2.59-.99,4.21s.33,3.01.99,4.21c.66,1.19,1.53,2.1,2.61,2.73,1.08.63,2.23.94,3.46.94s2.42-.32,3.5-.97c1.08-.64,1.95-1.56,2.61-2.76.66-1.19.99-2.61.99-4.25s-.33-3-.99-4.18Z"/>
        <path class="cls-1" d="M174.27,135.16v3.7c0,.55-.45,1-1,1h-18.5c-.55,0-1-.45-1-1v-3.7c0-.55.45-1,1-1h18.5c.55,0,1,.45,1,1Z"/>
        <path class="cls-1" d="M182.31,123.16c-.79-.76-1.18-1.7-1.18-2.83s.39-2.07,1.18-2.83c.79-.76,1.78-1.14,2.97-1.14s2.18.38,2.97,1.14c.79.76,1.18,1.7,1.18,2.83s-.4,2.07-1.18,2.83c-.79.76-1.78,1.14-2.97,1.14s-2.18-.38-2.97-1.14ZM188.62,128.49v24.78c0,.55-.45,1-1,1h-4.77c-.55,0-1-.45-1-1v-24.78c0-.55.45-1,1-1h4.77c.55,0,1,.45,1,1Z"/>
        <path class="cls-1" d="M219.12,142.91h-18.59c-.06,0-.11.05-.1.11.18,1.88.85,3.36,2.02,4.43,1.19,1.1,2.66,1.64,4.4,1.64,2.3,0,4-.91,5.08-2.72.19-.31.51-.52.87-.52h5.27c.72,0,1.21.74.93,1.4-.84,1.96-2.16,3.61-3.94,4.96-2.19,1.66-4.88,2.49-8.07,2.49-2.58,0-4.89-.57-6.94-1.72-2.05-1.14-3.64-2.76-4.79-4.86-1.14-2.09-1.72-4.51-1.72-7.25s.56-5.2,1.69-7.3c1.13-2.09,2.71-3.71,4.74-4.83,2.03-1.13,4.37-1.69,7.01-1.69,2.97,0,5.58.75,7.83,2.24,1.03.68,1.94,1.53,2.69,2.52,1.79,2.35,2.68,5.18,2.68,8.49,0,.6-.03,1.16-.07,1.69s-.48.92-1,.92ZM213.07,138.37c.06,0,.11-.05.1-.11-.06-1.69-.68-3.05-1.88-4.07-1.23-1.05-2.72-1.57-4.5-1.57-1.68,0-3.09.51-4.23,1.52-1.12.99-1.81,2.36-2.08,4.11,0,.06.04.12.1.12h12.49Z"/>
      </g>
      <rect class="cls-2" width="227" height="160"/>
    </g>
  </g>
</svg>