<svg width="32" height="40" viewBox="0 0 32 40" fill="none" xmlns="http://www.w3.org/2000/svg">
<path d="M27.3777 39.4177C26.9633 39.0356 26.7471 38.5625 26.7471 37.9985C26.7471 37.4344 26.9633 36.9249 27.3777 36.5428C27.792 36.1607 28.2964 35.9605 28.8909 35.9605C29.4854 35.9605 29.9898 36.1607 30.4221 36.5428C30.8545 36.9249 31.0707 37.4162 31.0707 37.9985C31.0707 38.5807 30.8545 39.0356 30.4221 39.4177C29.9898 39.7998 29.4854 40 28.8909 40C28.2964 40 27.81 39.7998 27.3777 39.4177Z" fill="#BBD868"/>
<path d="M15.323 12.7917C14.8366 5.65891 8.92784 0 1.74 0H0.92934V39.6488H14.7285C14.8366 39.6488 14.9447 39.6488 15.0528 39.6488C22.3848 39.6488 28.3476 33.6259 28.3476 26.2202C28.3476 18.8145 22.5289 12.9373 15.305 12.7917H15.323ZM6.76608 25.7471H3.39734C3.63153 19.9063 8.0271 15.1572 13.7377 14.5203V25.7471H6.76608ZM15.3591 27.3848V19.2512C18.8359 19.6697 21.5381 22.7994 21.5381 26.566C21.5381 30.3325 18.8359 33.4622 15.3591 33.8989V27.3848ZM13.7017 12.8645C8.5135 13.3922 4.24403 16.8858 2.55066 21.6349V1.67402C8.49548 2.07433 13.2694 6.87803 13.7017 12.8645ZM13.7377 38.0111H2.55066V27.3666H13.7377V38.0111ZM15.3591 38.0111V35.5183C19.7186 35.0816 23.1594 31.2241 23.1594 26.5478C23.1594 21.8714 19.7366 18.0139 15.3591 17.5772V14.4293C21.6642 14.5931 26.7443 19.8153 26.7443 26.2202C26.7443 32.6252 21.6642 37.8474 15.3591 38.0111Z" fill="#BBD868"/>
</svg>
