<?xml version="1.0" encoding="UTF-8"?>
<svg id="Lager_2" data-name="Lager 2" xmlns="http://www.w3.org/2000/svg" viewBox="0 0 375 165">
  <defs>
    <style>
      .cls-1 {
        fill: #0063be;
      }

      .cls-1, .cls-2 {
        stroke-width: 0px;
      }

      .cls-2 {
        fill: none;
      }
    </style>
  </defs>
  <g id="Lager_1-2" data-name="Lager 1">
    <g>
      <g>
        <rect class="cls-1" x="26.05" y="28.91" width="9" height="21.05" rx="4.19" ry="4.19"/>
        <rect class="cls-1" x="75.57" y="28.91" width="9" height="21.05" rx="4.19" ry="4.19"/>
        <rect class="cls-1" x="20.04" y="70.29" width="12.33" height="12.35"/>
        <rect class="cls-1" x="38.95" y="70.29" width="12.33" height="12.35"/>
        <rect class="cls-1" x="57.85" y="70.29" width="12.33" height="12.35"/>
        <rect class="cls-1" x="76.75" y="70.29" width="12.33" height="12.35"/>
        <path class="cls-1" d="M32.37,119.37h-.85c-6.34,0-11.48-5.14-11.48-11.48v-.87h12.33v12.35Z"/>
        <rect class="cls-1" x="38.95" y="107.02" width="12.33" height="12.35"/>
        <rect class="cls-1" x="57.85" y="107.02" width="12.33" height="12.35"/>
        <path class="cls-1" d="M77.6,119.37h-.85v-12.35h12.33v.87c0,6.34-5.14,11.48-11.48,11.48Z"/>
        <rect class="cls-1" x="20.04" y="88.65" width="12.33" height="12.35"/>
        <rect class="cls-1" x="38.95" y="88.65" width="12.33" height="12.35"/>
        <rect class="cls-1" x="57.85" y="88.65" width="12.33" height="12.35"/>
        <rect class="cls-1" x="76.75" y="88.65" width="12.33" height="12.35"/>
        <path class="cls-1" d="M104.09,55.62v50.93c0,4.7-1.18,9.13-3.25,12.99v-3.88c0-3.36-2.71-6.08-6.07-6.08h-.26c.36-1.52.58-3.11.58-4.75v-40.56H14.04v40.56c0,11.17,9.06,20.24,20.21,20.24h40.62c1.06,0,2.11-.1,3.13-.27-.13.48-.19.99-.19,1.5,0,3.35,2.73,6.07,6.07,6.07h2.27c-2.98,1.12-6.21,1.74-9.58,1.74h-44.03c-15.19,0-27.51-12.34-27.51-27.55v-50.93c0-8.97,6.95-16.31,15.76-16.9v6.73c0,5.4,4.37,9.77,9.75,9.77s9.75-4.38,9.75-9.77v-6.77h30.02v6.77c0,5.4,4.37,9.77,9.75,9.77s9.75-4.38,9.75-9.77v-6.56c8.09,1.26,14.26,8.27,14.26,16.73Z"/>
        <path class="cls-1" d="M104.03,123.29h-6.29v-6.55c0-1.66-1.34-3-3-3h-.49c-1.66,0-3,1.34-3,3v6.55h-6.29c-.82,0-1.58.33-2.12.87-.54.55-.87,1.29-.87,2.13,0,1.66,1.34,3,3,3h6.29v6.55c0,1.66,1.34,3,3,3h.49c1.66,0,3-1.34,3-3v-6.55h6.29c.82,0,1.58-.33,2.12-.87.54-.55.87-1.29.87-2.13,0-1.66-1.34-3-3-3Z"/>
      </g>
      <rect class="cls-2" width="375" height="165"/>
      <g>
        <path class="cls-1" d="M155.29,61.91c-.97,1.8-2.5,3.26-4.57,4.36-2.08,1.1-4.69,1.66-7.85,1.66h-6.45v12.61c0,1.21-.98,2.19-2.19,2.19h-3.34c-1.21,0-2.19-.98-2.19-2.19v-34.16c0-1.21.98-2.19,2.19-2.19h11.98c2.98,0,5.51.52,7.61,1.55,2.09,1.03,3.67,2.45,4.71,4.25,1.05,1.8,1.57,3.85,1.57,6.13,0,2.06-.49,3.99-1.46,5.8ZM147.27,60.22c1.03-.98,1.54-2.35,1.54-4.11,0-3.76-2.09-5.63-6.28-5.63h-6.12v11.21h6.12c2.13,0,3.71-.49,4.74-1.46Z"/>
        <path class="cls-1" d="M169.92,44.05v36.48c0,1.21-.98,2.19-2.19,2.19h-3.34c-1.21,0-2.19-.98-2.19-2.19v-36.48c0-1.21.98-2.19,2.19-2.19h3.34c1.21,0,2.19.98,2.19,2.19Z"/>
        <path class="cls-1" d="M177.39,59.09c1.23-2.39,2.9-4.23,5.02-5.52,2.11-1.29,4.47-1.93,7.08-1.93,2.28,0,4.27.46,5.98,1.38,1.71.92,3.08,2.08,4.11,3.48v-2.17c0-1.21.98-2.19,2.19-2.19h3.39c1.21,0,2.19.98,2.19,2.19v26.21c0,1.21-.98,2.19-2.19,2.19h-3.39c-1.21,0-2.19-.98-2.19-2.19v-2.28c-.99,1.44-2.36,2.62-4.11,3.56-1.75.94-3.76,1.41-6.04,1.41-2.57,0-4.91-.66-7.03-1.99-2.11-1.32-3.79-3.19-5.02-5.6-1.23-2.41-1.85-5.18-1.85-8.31s.62-5.83,1.85-8.23ZM198.47,62.6c-.74-1.34-1.73-2.37-2.98-3.09-1.25-.72-2.59-1.08-4.02-1.08s-2.76.35-3.97,1.05c-1.21.7-2.2,1.72-2.95,3.06-.75,1.34-1.13,2.94-1.13,4.78s.38,3.45,1.13,4.83c.75,1.38,1.74,2.44,2.98,3.18,1.23.74,2.54,1.1,3.94,1.1s2.77-.36,4.02-1.08c1.25-.72,2.24-1.75,2.98-3.09.73-1.34,1.1-2.95,1.1-4.83s-.37-3.49-1.1-4.83Z"/>
        <path class="cls-1" d="M240.64,55.14c2.24,2.3,3.36,5.51,3.36,9.64v15.76c0,1.21-.98,2.19-2.19,2.19h-3.34c-1.21,0-2.19-.98-2.19-2.19v-14.71c0-2.43-.61-4.3-1.82-5.6-1.21-1.31-2.87-1.96-4.96-1.96s-3.81.65-5.04,1.96c-1.23,1.31-1.85,3.17-1.85,5.6v14.71c0,1.21-.98,2.19-2.19,2.19h-3.34c-1.21,0-2.19-.98-2.19-2.19v-26.21c0-1.21.98-2.19,2.19-2.19h3.34c1.21,0,2.19.98,2.19,2.19v1.62c1.03-1.33,2.34-2.36,3.94-3.12,1.6-.75,3.35-1.13,5.26-1.13,3.64,0,6.58,1.15,8.82,3.45Z"/>
        <path class="cls-1" d="M277.07,55.14c2.24,2.3,3.36,5.51,3.36,9.64v15.76c0,1.21-.98,2.19-2.19,2.19h-3.34c-1.21,0-2.19-.98-2.19-2.19v-14.71c0-2.43-.61-4.3-1.82-5.6-1.21-1.31-2.87-1.96-4.96-1.96s-3.81.65-5.04,1.96c-1.23,1.31-1.85,3.17-1.85,5.6v14.71c0,1.21-.98,2.19-2.19,2.19h-3.34c-1.21,0-2.19-.98-2.19-2.19v-26.21c0-1.21.98-2.19,2.19-2.19h3.34c1.21,0,2.19.98,2.19,2.19v1.62c1.03-1.33,2.34-2.36,3.94-3.12,1.6-.75,3.35-1.13,5.26-1.13,3.64,0,6.58,1.15,8.82,3.45Z"/>
        <path class="cls-1" d="M288.29,47.19c-.9-.86-1.35-1.94-1.35-3.23s.45-2.36,1.35-3.23c.9-.86,2.03-1.3,3.39-1.3s2.49.43,3.39,1.3c.9.87,1.35,1.94,1.35,3.23s-.45,2.37-1.35,3.23c-.9.87-2.03,1.3-3.39,1.3s-2.49-.43-3.39-1.3ZM295.48,54.32v26.21c0,1.21-.98,2.19-2.19,2.19h-3.34c-1.21,0-2.19-.98-2.19-2.19v-26.21c0-1.21.98-2.19,2.19-2.19h3.34c1.21,0,2.19.98,2.19,2.19Z"/>
        <path class="cls-1" d="M328.83,55.14c2.24,2.3,3.36,5.51,3.36,9.64v15.76c0,1.21-.98,2.19-2.19,2.19h-3.34c-1.21,0-2.19-.98-2.19-2.19v-14.71c0-2.43-.61-4.3-1.82-5.6-1.21-1.31-2.87-1.96-4.96-1.96s-3.81.65-5.04,1.96c-1.23,1.31-1.85,3.17-1.85,5.6v14.71c0,1.21-.98,2.19-2.19,2.19h-3.34c-1.21,0-2.19-.98-2.19-2.19v-26.21c0-1.21.98-2.19,2.19-2.19h3.34c1.21,0,2.19.98,2.19,2.19v1.62c1.03-1.33,2.34-2.36,3.94-3.12,1.6-.75,3.35-1.13,5.26-1.13,3.64,0,6.58,1.15,8.82,3.45Z"/>
        <path class="cls-1" d="M357.49,52.99c1.73.9,3.09,2.07,4.08,3.51v-2.17c0-1.21.98-2.19,2.19-2.19h3.39c1.21,0,2.19.98,2.19,2.19v28.62c0,2.83-.57,5.36-1.71,7.59-1.14,2.23-2.85,3.99-5.13,5.3-2.28,1.31-5.04,1.96-8.27,1.96-4.34,0-7.89-1.01-10.67-3.04-1.98-1.44-3.34-3.26-4.1-5.44-.48-1.39.62-2.84,2.09-2.84h3.39c.82,0,1.63.4,2.02,1.13.48.88,1.2,1.62,2.16,2.21,1.34.83,2.97,1.24,4.88,1.24,2.24,0,4.06-.67,5.46-2.02,1.4-1.34,2.09-3.38,2.09-6.1v-4.75c-.99,1.44-2.36,2.63-4.11,3.59-1.75.96-3.74,1.44-5.98,1.44-2.57,0-4.93-.66-7.06-1.99-2.13-1.32-3.81-3.19-5.04-5.6-1.23-2.41-1.85-5.18-1.85-8.31s.62-5.83,1.85-8.23c1.23-2.39,2.9-4.23,5.02-5.52,2.11-1.29,4.47-1.93,7.08-1.93,2.28,0,4.28.45,6.01,1.35ZM360.47,62.6c-.74-1.34-1.73-2.37-2.98-3.09-1.25-.72-2.59-1.08-4.02-1.08s-2.76.35-3.97,1.05c-1.21.7-2.2,1.72-2.95,3.06-.75,1.34-1.13,2.94-1.13,4.78s.38,3.45,1.13,4.83c.75,1.38,1.74,2.44,2.98,3.18,1.23.74,2.54,1.1,3.94,1.1s2.77-.36,4.02-1.08c1.25-.72,2.24-1.75,2.98-3.09.73-1.34,1.1-2.95,1.1-4.83s-.37-3.49-1.1-4.83Z"/>
      </g>
      <g>
        <path class="cls-1" d="M155.25,111.16c-.97,1.8-2.49,3.24-4.56,4.34-2.07,1.1-4.68,1.65-7.84,1.65h-6.44v12.74c0,1.1-.9,2-2,2h-3.7c-1.1,0-2-.9-2-2v-34.39c0-1.1.9-2,2-2h12.14c2.97,0,5.5.51,7.59,1.54,2.09,1.03,3.66,2.44,4.7,4.23,1.04,1.8,1.57,3.83,1.57,6.11,0,2.05-.49,3.98-1.46,5.77ZM147.25,109.48c1.03-.97,1.54-2.34,1.54-4.1,0-3.74-2.09-5.61-6.27-5.61h-6.1v11.17h6.1c2.13,0,3.7-.49,4.73-1.46Z"/>
        <path class="cls-1" d="M167.76,130.43c-2.35-1.3-4.19-3.14-5.53-5.53-1.34-2.38-2.01-5.13-2.01-8.25s.69-5.87,2.06-8.25c1.38-2.38,3.25-4.23,5.64-5.53,2.38-1.3,5.04-1.95,7.98-1.95s5.59.65,7.98,1.95c2.38,1.3,4.26,3.14,5.64,5.53,1.38,2.38,2.06,5.13,2.06,8.25s-.71,5.87-2.12,8.25c-1.41,2.38-3.32,4.23-5.72,5.53-2.4,1.3-5.09,1.95-8.06,1.95s-5.57-.65-7.92-1.95ZM179.61,124.66c1.23-.68,2.21-1.7,2.94-3.05.73-1.36,1.1-3.01,1.1-4.95,0-2.9-.76-5.12-2.28-6.68-1.52-1.56-3.38-2.34-5.58-2.34s-4.04.78-5.53,2.34c-1.49,1.56-2.23,3.79-2.23,6.68s.72,5.12,2.17,6.68c1.45,1.56,3.27,2.34,5.47,2.34,1.39,0,2.7-.34,3.93-1.02Z"/>
        <path class="cls-1" d="M197.76,96.5c-.9-.86-1.35-1.93-1.35-3.22s.45-2.36,1.35-3.22c.9-.86,2.03-1.29,3.38-1.29s2.48.43,3.38,1.29c.9.86,1.35,1.93,1.35,3.22s-.45,2.36-1.35,3.22c-.9.86-2.03,1.29-3.38,1.29s-2.48-.43-3.38-1.29ZM204.94,103.42v26.47c0,1.1-.9,2-2,2h-3.7c-1.1,0-2-.9-2-2v-26.47c0-1.1.9-2,2-2h3.7c1.1,0,2,.9,2,2Z"/>
        <path class="cls-1" d="M238.21,104.42c2.24,2.29,3.35,5.49,3.35,9.6v15.88c0,1.1-.9,2-2,2h-3.7c-1.1,0-2-.9-2-2v-14.83c0-2.42-.6-4.28-1.81-5.58-1.21-1.3-2.86-1.95-4.95-1.95s-3.8.65-5.03,1.95c-1.23,1.3-1.84,3.16-1.84,5.58v14.83c0,1.1-.9,2-2,2h-3.7c-1.1,0-2-.9-2-2v-26.47c0-1.1.9-2,2-2h3.7c1.1,0,2,.9,2,2v1.8c1.03-1.32,2.34-2.36,3.93-3.11,1.59-.75,3.35-1.13,5.25-1.13,3.63,0,6.56,1.15,8.8,3.44Z"/>
        <path class="cls-1" d="M257.85,107.75v14.74c0,1.03.25,1.77.74,2.23.5.46,1.33.69,2.5.69h1.58c1.1,0,2,.9,2,2v2.49c0,1.1-.9,2-2,2h-2.84c-6.49,0-9.74-3.15-9.74-9.46v-14.69h-1.63c-1.1,0-2-.9-2-2v-2.33c0-1.1.9-2,2-2h1.63v-5.53c0-1.1.9-2,2-2h3.75c1.1,0,2,.9,2,2v5.53h4.82c1.1,0,2,.9,2,2v2.33c0,1.1-.9,2-2,2h-4.82Z"/>
      </g>
    </g>
  </g>
</svg>