<?xml version="1.0" encoding="UTF-8"?>
<svg id="Layer_2" data-name="Layer 2" xmlns="http://www.w3.org/2000/svg" viewBox="0 0 165 165">
  <defs>
    <style>
      .cls-1 {
        fill: none;
        opacity: 0;
      }

      .cls-2 {
        fill: #4b815b;
      }
    </style>
  </defs>
  <g id="Lager_2" data-name="Lager 2">
    <g>
      <g>
        <path class="cls-2" d="M136.19,55.49l-6.63,29.08c-.25,1.09-1.32,1.75-2.41,1.53-1.54-.31-3.13-.47-4.76-.47h-.02c-1.05,0-1.84-.95-1.61-1.97l6.89-30.14c.02-.1,0-.17-.05-.22-.03-.04-.08-.06-.14-.06H40.54s-.03.02-.02.03l9.49,43.66s.02.02.03.02h49.03c1.19,0,1.97,1.24,1.45,2.31-.73,1.48-1.32,3.05-1.73,4.68-.23.9-1.03,1.52-1.96,1.52h-44.12c-3.4,0-6.08,3.08-5.39,6.61.5,2.61,2.95,4.39,5.61,4.39h44.5c.85,0,1.63.53,1.9,1.34.75,2.23,1.82,4.3,3.14,6.18,0,.01.02.03.02.04,1.49,1.09,2.46,2.85,2.46,4.83,0,3.32-2.69,6-6,6s-6-2.68-6-6c0-1.44.51-2.76,1.35-3.8h-36.71c.85,1.04,1.36,2.36,1.36,3.8,0,3.32-2.69,6-6,6s-6-2.68-6-6c0-1.61.64-3.08,1.68-4.16-1.53-.33-3-.91-4.33-1.76-6.37-4.11-8-12.22-4.52-18.28l1.48-2.6c.26-.46.47-.82.65-1.11t0-.02l-12.09-55.52c-.47-2.1-.99-4.48-2.05-5.53-1.49-1.49-4.5-1.5-7.69-1.5h-10.2c-2.73,0-4.86-2.47-4.3-5.28.41-2.08,2.36-3.49,4.47-3.49h9.96c4.46,0,9.91.02,13.96,4.07,2.86,2.86,3.72,6.72,4.41,9.83l.21.98h88.64c1.91,0,3.82.51,5.37,1.62,3.06,2.18,4.42,5.85,3.58,9.39Z"/>
        <path class="cls-2" d="M160.56,96.43l-9.69,34.69c-.13.47-.56.8-1.05.8h-7.05c-.5,0-.93-.33-1.06-.81l-6.6-25.05c-.03-.11-.18-.11-.21,0l-6.91,25.07c-.13.47-.56.8-1.05.8l-6.99.04c-.5,0-.93-.33-1.06-.81l-9.34-34.74c-.19-.69.34-1.38,1.06-1.38h5.63c.51,0,.95.35,1.07.85l6.21,27.35c.03.11.18.11.21,0l7.18-27.39c.13-.48.56-.82,1.06-.82h6.54c.5,0,.94.34,1.06.83l6.76,27.2c.03.11.19.11.21,0l6.25-27.18c.11-.5.56-.85,1.07-.85h5.67c.72,0,1.25.69,1.05,1.39Z"/>
      </g>
      <rect class="cls-1" width="165" height="165"/>
    </g>
  </g>
</svg>