<svg width="152" height="40" viewBox="0 0 152 40" fill="none" xmlns="http://www.w3.org/2000/svg">
<g clip-path="url(#clip0_36_104)">
<path d="M38.7033 38.0358C36.6129 36.9344 34.9326 35.3924 33.6627 33.4098C32.3928 31.4272 31.7676 29.151 31.7676 26.5993C31.7676 24.0477 32.3928 21.7714 33.6627 19.7889C34.9326 17.8063 36.6129 16.2643 38.7033 15.1813C40.7938 14.0982 43.1188 13.5475 45.6391 13.5475C48.1594 13.5475 50.5039 14.0982 52.6334 15.1813C54.763 16.2643 56.4627 17.8063 57.7131 19.7889C58.9635 21.7714 59.5887 24.0477 59.5887 26.5993C59.5887 29.151 58.9635 31.4272 57.7131 33.4098C56.4627 35.3924 54.7825 36.9527 52.6334 38.0358C50.5039 39.1372 48.1594 39.6879 45.6391 39.6879C43.1188 39.6879 40.7938 39.1372 38.7033 38.0358ZM49.8982 33.8137C51.2267 33.0977 52.2622 32.1065 53.0242 30.8398C53.7861 29.5548 54.1573 28.123 54.1573 26.5259C54.1573 24.9289 53.7861 23.5521 53.0242 22.3222C52.2622 21.0739 51.2463 20.1009 49.9568 19.385C48.6674 18.6691 47.2411 18.3203 45.6391 18.3203C44.037 18.3203 42.6889 18.6691 41.419 19.385C40.1491 20.1009 39.1332 21.0739 38.3907 22.3222C37.6288 23.5704 37.2576 24.9656 37.2576 26.5259C37.2576 28.0863 37.6288 29.5548 38.3907 30.8398C39.1527 32.1248 40.1491 33.1161 41.419 33.8137C42.6889 34.5296 44.0956 34.8784 45.6391 34.8784C47.1825 34.8784 48.5697 34.5296 49.8982 33.8137Z" fill="#BBD868"/>
<path d="M60.9758 14.8875H76.801V19.2014H60.9758V14.8875ZM65.7429 5.56213H71.1938V39.7613H65.7429V5.56213ZM60.9758 14.8875C64.981 14.8875 65.7429 15.6585 65.7429 5.56213V14.8875H60.9758Z" fill="#BBD868"/>
<path d="M80.9234 8.15058C80.181 7.52644 79.8098 6.75545 79.8098 5.83759C79.8098 4.91974 80.181 4.09367 80.9234 3.46953C81.6658 2.84539 82.545 2.53333 83.5609 2.53333C84.5769 2.53333 85.4756 2.84539 86.218 3.46953C86.9799 4.09367 87.3512 4.88303 87.3512 5.83759C87.3512 6.79216 86.9799 7.52644 86.218 8.15058C85.456 8.77472 84.5769 9.08679 83.5609 9.08679C82.545 9.08679 81.6658 8.77472 80.9234 8.15058ZM80.9039 14.8876H86.3548V39.7614H80.9039V14.8876Z" fill="#BBD868"/>
<path d="M88.9141 14.8508H94.7558L102.571 33.1712L110.347 14.8508H116.247L105.13 39.7246H99.9722L88.9141 14.8508Z" fill="#BBD868"/>
<path d="M15.6103 12.905C15.0828 5.70904 8.67455 0 0.879177 0H0V40H14.9656C15.0828 40 15.2 40 15.3172 40C23.2689 40 29.7357 33.9238 29.7357 26.4525C29.7357 18.9812 23.4252 13.0519 15.5907 12.905H15.6103ZM6.33008 25.9752H2.67661C2.93059 20.0826 7.69769 15.2914 13.891 14.6489V25.9752H6.33008ZM15.6494 27.6274V19.4218C19.42 19.844 22.3506 23.0014 22.3506 26.8013C22.3506 30.6012 19.42 33.7586 15.6494 34.1992V27.6274ZM13.8519 12.9784C8.22519 13.5108 3.59486 17.0353 1.75835 21.8265V1.68885C8.20566 2.0927 13.383 6.93896 13.8519 12.9784ZM13.891 38.3479H1.75835V27.609H13.891V38.3479ZM15.6494 38.3479V35.833C20.3774 35.3924 24.109 31.5007 24.109 26.7829C24.109 22.0652 20.3969 18.1735 15.6494 17.7329V14.5571C22.4874 14.7224 27.9969 19.9908 27.9969 26.4525C27.9969 32.9142 22.4874 38.1827 15.6494 38.3479Z" fill="#BBD868"/>
<path d="M147.995 39.1373C147.545 38.7518 147.311 38.2745 147.311 37.7054C147.311 37.1363 147.545 36.6223 147.995 36.2368C148.444 35.8513 148.991 35.6494 149.636 35.6494C150.281 35.6494 150.828 35.8513 151.297 36.2368C151.766 36.6223 152 37.118 152 37.7054C152 38.2928 151.766 38.7518 151.297 39.1373C150.828 39.5228 150.281 39.7247 149.636 39.7247C148.991 39.7247 148.464 39.5228 147.995 39.1373Z" fill="#BBD868"/>
<path d="M123.515 38.0909C121.541 36.9711 119.978 35.4108 118.806 33.4282C117.634 31.4457 117.048 29.1877 117.048 26.6545C117.048 24.1212 117.614 21.9918 118.748 20.0276C119.881 18.0634 121.444 16.503 123.456 15.3465C125.468 14.19 127.696 13.621 130.138 13.621C132.58 13.621 133.029 13.8413 134.397 14.2818C135.765 14.7224 136.937 15.3832 137.914 16.2827C138.891 17.1639 139.594 18.2102 140.004 19.4218L139.379 20.1194V14.2635H144.83V39.688H139.379V32.6389L140.004 33.4466C139.594 34.6581 138.891 35.7412 137.914 36.7141C136.937 37.6871 135.745 38.4397 134.338 38.9721C132.932 39.5044 131.466 39.7798 129.923 39.7798C127.617 39.7798 125.488 39.2291 123.515 38.1093V38.0909ZM134.983 33.8688C136.331 33.1345 137.386 32.1432 138.148 30.8766C138.93 29.61 139.301 28.1965 139.301 26.6361C139.301 25.0758 138.89 23.6623 138.089 22.3956C137.269 21.129 136.194 20.1561 134.866 19.4402C133.518 18.7242 132.131 18.3754 130.704 18.3754C129.278 18.3754 127.852 18.7609 126.562 19.5136C125.273 20.2846 124.257 21.2942 123.534 22.5425C122.792 23.8091 122.421 25.1676 122.421 26.6178C122.421 28.068 122.792 29.4447 123.554 30.7114C124.316 31.9964 125.312 33.006 126.582 33.777C127.852 34.548 129.259 34.9151 130.802 34.9151C132.346 34.9151 133.635 34.548 134.964 33.8321L134.983 33.8688Z" fill="#BBD868"/>
</g>
<defs>
<clipPath id="clip0_36_104">
<rect width="152" height="40" fill="white"/>
</clipPath>
</defs>
</svg>
