<?xml version="1.0" encoding="UTF-8"?>
<svg id="Lager_2" data-name="Lager 2" xmlns="http://www.w3.org/2000/svg" viewBox="0 0 140 140">
  <defs>
    <style>
      .cls-1 {
        fill: #0063be;
      }

      .cls-1, .cls-2 {
        stroke-width: 0px;
      }

      .cls-2 {
        fill: none;
      }
    </style>
  </defs>
  <g id="Lager_1-2" data-name="Lager 1">
    <g>
      <g>
        <rect class="cls-1" x="42.66" y="16.16" width="8.84" height="20.66" rx="4.19" ry="4.19"/>
        <rect class="cls-1" x="91.28" y="16.16" width="8.84" height="20.66" rx="4.19" ry="4.19"/>
        <rect class="cls-1" x="36.76" y="56.78" width="12.1" height="12.12"/>
        <rect class="cls-1" x="55.32" y="56.78" width="12.1" height="12.12"/>
        <rect class="cls-1" x="73.88" y="56.78" width="12.1" height="12.12"/>
        <rect class="cls-1" x="92.43" y="56.78" width="12.1" height="12.12"/>
        <path class="cls-1" d="M48.87,104.96h-.62c-6.34,0-11.48-5.14-11.48-11.48v-.65h12.1v12.12Z"/>
        <rect class="cls-1" x="55.32" y="92.84" width="12.1" height="12.12"/>
        <rect class="cls-1" x="73.88" y="92.84" width="12.1" height="12.12"/>
        <path class="cls-1" d="M93.06,104.96h-.62v-12.12h12.1v.65c0,6.34-5.14,11.48-11.48,11.48Z"/>
        <rect class="cls-1" x="36.76" y="74.81" width="12.1" height="12.12"/>
        <rect class="cls-1" x="55.32" y="74.81" width="12.1" height="12.12"/>
        <rect class="cls-1" x="73.88" y="74.81" width="12.1" height="12.12"/>
        <rect class="cls-1" x="92.43" y="74.81" width="12.1" height="12.12"/>
        <path class="cls-1" d="M119.27,42.39v50c0,4.61-1.16,8.96-3.19,12.75v-3.81c0-3.3-2.66-5.97-5.96-5.97h-.25c.36-1.5.57-3.05.57-4.67v-39.81H30.87v39.81c0,10.96,8.89,19.86,19.84,19.86h39.88c1.04,0,2.07-.09,3.08-.26-.13.47-.19.97-.19,1.47,0,3.29,2.68,5.96,5.96,5.96h2.23c-2.93,1.1-6.1,1.71-9.41,1.71h-43.23c-14.91,0-27.01-12.11-27.01-27.05v-50c0-8.81,6.83-16.01,15.47-16.59v6.6c0,5.3,4.29,9.6,9.57,9.6s9.57-4.3,9.57-9.6v-6.65h29.47v6.65c0,5.3,4.29,9.6,9.57,9.6s9.57-4.3,9.57-9.6v-6.44c7.94,1.23,14,8.12,14,16.42Z"/>
        <path class="cls-1" d="M119.21,108.81h-6.17v-6.43c0-1.63-1.31-2.95-2.94-2.95h-.48c-1.63,0-2.94,1.32-2.94,2.95v6.43h-6.17c-.81,0-1.56.33-2.09.86-.53.54-.86,1.27-.86,2.09,0,1.63,1.31,2.95,2.94,2.95h6.17v6.43c0,1.63,1.31,2.95,2.94,2.95h.48c1.63,0,2.94-1.32,2.94-2.95v-6.43h6.17c.81,0,1.56-.33,2.09-.86.53-.54.86-1.27.86-2.09,0-1.63-1.31-2.95-2.94-2.95Z"/>
      </g>
      <rect class="cls-2" width="140" height="140"/>
    </g>
  </g>
</svg>