<?xml version="1.0" encoding="UTF-8"?>
<svg id="Layer_2" data-name="Layer 2" xmlns="http://www.w3.org/2000/svg" viewBox="0 0 375 165">
  <defs>
    <style>
      .cls-1 {
        fill: #6faa7f;
      }

      .cls-2 {
        fill: none;
        opacity: 0;
      }
    </style>
  </defs>
  <g id="Lager_2" data-name="Lager 2">
    <g>
      <g>
        <path class="cls-1" d="M136.19,55.49l-6.63,29.08c-.25,1.09-1.32,1.75-2.41,1.53-1.54-.31-3.13-.47-4.76-.47h-.02c-1.05,0-1.84-.95-1.61-1.97l6.89-30.14c.02-.1,0-.17-.05-.22-.03-.04-.08-.06-.14-.06H40.54s-.03.02-.02.03l9.49,43.66s.02.02.03.02h49.03c1.19,0,1.97,1.24,1.45,2.31-.73,1.48-1.32,3.05-1.73,4.68-.23.9-1.03,1.52-1.96,1.52h-44.12c-3.4,0-6.08,3.08-5.39,6.61.5,2.61,2.95,4.39,5.61,4.39h44.5c.85,0,1.63.53,1.9,1.34.75,2.23,1.82,4.3,3.14,6.18,0,.01.02.03.02.04,1.49,1.09,2.46,2.85,2.46,4.83,0,3.32-2.69,6-6,6s-6-2.68-6-6c0-1.44.51-2.76,1.35-3.8h-36.71c.85,1.04,1.36,2.36,1.36,3.8,0,3.32-2.69,6-6,6s-6-2.68-6-6c0-1.61.64-3.08,1.68-4.16-1.53-.33-3-.91-4.33-1.76-6.37-4.11-8-12.22-4.52-18.28l1.48-2.6c.26-.46.47-.82.65-1.11t0-.02l-12.09-55.52c-.47-2.1-.99-4.48-2.05-5.53-1.49-1.49-4.5-1.5-7.69-1.5h-10.2c-2.73,0-4.86-2.47-4.3-5.28.41-2.08,2.36-3.49,4.47-3.49h9.96c4.46,0,9.91.02,13.96,4.07,2.86,2.86,3.72,6.72,4.41,9.83l.21.98h88.64c1.91,0,3.82.51,5.37,1.62,3.06,2.18,4.42,5.85,3.58,9.39Z"/>
        <g>
          <path class="cls-1" d="M160.56,96.43l-9.69,34.69c-.13.47-.56.8-1.05.8h-7.05c-.5,0-.93-.33-1.06-.81l-6.6-25.05c-.03-.11-.18-.11-.21,0l-6.91,25.07c-.13.47-.56.8-1.05.8l-6.99.04c-.5,0-.93-.33-1.06-.81l-9.34-34.74c-.19-.69.34-1.38,1.06-1.38h5.63c.51,0,.95.35,1.07.85l6.21,27.35c.03.11.18.11.21,0l7.18-27.39c.13-.48.56-.82,1.06-.82h6.54c.5,0,.94.34,1.06.83l6.76,27.2c.03.11.19.11.21,0l6.25-27.18c.11-.5.56-.85,1.07-.85h5.67c.72,0,1.25.69,1.05,1.39Z"/>
          <path class="cls-1" d="M191.79,119.51h-20.31c-.07,0-.12.06-.11.13.19,2.05.93,3.67,2.21,4.84,1.3,1.2,2.91,1.8,4.81,1.8,2.52,0,4.37-.99,5.56-2.97.2-.34.56-.57.95-.57h5.76c.79,0,1.32.81,1.01,1.53-.92,2.14-2.36,3.94-4.3,5.42-2.4,1.81-5.34,2.72-8.82,2.72-2.82,0-5.34-.62-7.58-1.88-2.24-1.25-3.98-3.02-5.23-5.31-1.25-2.29-1.88-4.93-1.88-7.92s.62-5.69,1.85-7.98c1.23-2.29,2.96-4.05,5.18-5.28,2.22-1.23,4.77-1.85,7.66-1.85,3.25,0,6.1.82,8.56,2.45,1.12.74,2.12,1.68,2.94,2.75,1.95,2.57,2.93,5.66,2.93,9.28,0,.66-.03,1.27-.08,1.84s-.52,1.01-1.09,1.01ZM185.18,114.54c.06,0,.12-.06.11-.12-.06-1.85-.75-3.33-2.06-4.45-1.34-1.14-2.98-1.72-4.91-1.72-1.83,0-3.37.55-4.62,1.66-1.22,1.08-1.98,2.58-2.28,4.49-.01.07.04.13.11.13h13.65Z"/>
          <path class="cls-1" d="M209.68,103.5c1.67-.88,3.58-1.32,5.73-1.32,2.5,0,4.76.62,6.79,1.85,2.02,1.23,3.63,2.99,4.81,5.26,1.18,2.27,1.77,4.91,1.77,7.9s-.59,5.64-1.77,7.95c-1.18,2.31-2.78,4.1-4.81,5.36-2.03,1.27-4.29,1.9-6.79,1.9-2.18,0-4.09-.43-5.73-1.29-1.54-.81-2.78-1.84-3.75-3.1-.06-.08-.19-.04-.19.06v2.76c0,.6-.49,1.09-1.09,1.09h-5.21c-.6,0-1.09-.49-1.09-1.09v-36.91c0-.6.49-1.09,1.09-1.09h5.21c.6,0,1.09.49,1.09,1.09v12.68c0,.11.13.15.19.06.93-1.28,2.18-2.34,3.75-3.16ZM220.14,112.61c-.72-1.29-1.67-2.26-2.85-2.93-1.18-.67-2.46-1-3.83-1s-2.6.34-3.78,1.03c-1.18.69-2.13,1.68-2.85,2.99-.72,1.3-1.08,2.84-1.08,4.6s.36,3.29,1.08,4.6c.72,1.3,1.67,2.3,2.85,2.98,1.18.69,2.44,1.03,3.78,1.03s2.65-.35,3.83-1.06c1.18-.7,2.13-1.71,2.85-3.01.72-1.3,1.08-2.85,1.08-4.65s-.36-3.28-1.08-4.57Z"/>
          <path class="cls-1" d="M245.5,103.5c1.67-.88,3.58-1.32,5.73-1.32,2.5,0,4.76.62,6.79,1.85,2.02,1.23,3.63,2.99,4.81,5.26,1.18,2.27,1.77,4.91,1.77,7.9s-.59,5.64-1.77,7.95c-1.18,2.31-2.78,4.1-4.81,5.36-2.03,1.27-4.29,1.9-6.79,1.9-2.18,0-4.09-.43-5.73-1.29-1.54-.81-2.78-1.84-3.75-3.1-.06-.08-.19-.04-.19.06v2.76c0,.6-.49,1.09-1.09,1.09h-5.21c-.6,0-1.09-.49-1.09-1.09v-36.91c0-.6.49-1.09,1.09-1.09h5.21c.6,0,1.09.49,1.09,1.09v12.68c0,.11.13.15.19.06.93-1.28,2.18-2.34,3.75-3.16ZM255.96,112.61c-.72-1.29-1.67-2.26-2.85-2.93-1.18-.67-2.46-1-3.83-1s-2.6.34-3.78,1.03c-1.18.69-2.13,1.68-2.85,2.99-.72,1.3-1.08,2.84-1.08,4.6s.36,3.29,1.08,4.6c.72,1.3,1.67,2.3,2.85,2.98,1.18.69,2.44,1.03,3.78,1.03s2.65-.35,3.83-1.06c1.18-.7,2.13-1.71,2.85-3.01.72-1.3,1.08-2.85,1.08-4.65s-.36-3.28-1.08-4.57Z"/>
          <path class="cls-1" d="M292.5,111.04v4.05c0,.6-.49,1.09-1.09,1.09h-20.22c-.6,0-1.09-.49-1.09-1.09v-4.05c0-.6.49-1.09,1.09-1.09h20.22c.6,0,1.09.49,1.09,1.09Z"/>
          <path class="cls-1" d="M301.3,97.92c-.86-.83-1.29-1.86-1.29-3.09s.43-2.26,1.29-3.09c.86-.83,1.95-1.24,3.25-1.24s2.39.41,3.25,1.24c.86.83,1.29,1.86,1.29,3.09s-.43,2.26-1.29,3.09c-.86.83-1.95,1.24-3.25,1.24s-2.39-.41-3.25-1.24ZM308.19,103.74v27.08c0,.6-.49,1.09-1.09,1.09h-5.21c-.6,0-1.09-.49-1.09-1.09v-27.08c0-.6.49-1.09,1.09-1.09h5.21c.6,0,1.09.49,1.09,1.09Z"/>
          <path class="cls-1" d="M341.52,119.51h-20.31c-.07,0-.12.06-.11.13.19,2.05.93,3.67,2.21,4.84,1.3,1.2,2.91,1.8,4.81,1.8,2.52,0,4.37-.99,5.56-2.97.2-.34.56-.57.95-.57h5.76c.79,0,1.32.81,1.01,1.53-.92,2.14-2.36,3.94-4.3,5.42-2.4,1.81-5.34,2.72-8.82,2.72-2.82,0-5.34-.62-7.58-1.88-2.24-1.25-3.98-3.02-5.23-5.31-1.25-2.29-1.88-4.93-1.88-7.92s.62-5.69,1.85-7.98c1.23-2.29,2.96-4.05,5.18-5.28,2.22-1.23,4.77-1.85,7.66-1.85,3.25,0,6.1.82,8.56,2.45,1.12.74,2.12,1.68,2.94,2.75,1.95,2.57,2.93,5.66,2.93,9.28,0,.66-.03,1.27-.08,1.84s-.52,1.01-1.09,1.01ZM334.91,114.54c.06,0,.12-.06.11-.12-.06-1.85-.75-3.33-2.06-4.45-1.34-1.14-2.98-1.72-4.91-1.72-1.83,0-3.37.55-4.62,1.66-1.22,1.08-1.98,2.58-2.28,4.49-.01.07.04.13.11.13h13.65Z"/>
        </g>
      </g>
      <rect class="cls-2" width="375" height="165"/>
    </g>
  </g>
</svg>